PathFileType	4	(X/Y/Z)	Static_1_OpenSim.trc																																																																																																																																								
DataRate	CameraRate	NumFrames	NumMarkers	Units	OrigDataRate	OrigDataStartFrame	OrigNumFrames																																																																																																																																				
100	100	8	46	mm	100	70	559																																																																																																																																				
Frame#	Time	R.Acromium			L.Acromium			Sternum			R.Bicep			L.Bicep			R.Elbow			L.Elbow			R.Wrist.Med			R.Wrist.Lat			L.Wrist.Med			L.Wrist.Lat			R.ASIS			R.PSIS			S2			L.PSIS			L.ASIS			R.TH1			R.TH2			R.TH3			R.Knee			R.SH1			R.SH2			R.SH3			R.SH4			R.Ankle			R.Heel			R.MT5			R.MT1			R.Toe.Tip			L.TH1			L.TH2			L.TH3			L.TH4			L.Knee			L.SH1			L.SH2			L.SH3			L.Ankle			L.Heel			L.MT5			L.MT1			L.Toe.Tip			R.MKnee			R.MAnkle			L.MKnee			L.MAnkle		
		X1	Y1	Z1	X2	Y2	Z2	X3	Y3	Z3	X4	Y4	Z4	X5	Y5	Z5	X6	Y6	Z6	X7	Y7	Z7	X8	Y8	Z8	X9	Y9	Z9	X10	Y10	Z10	X11	Y11	Z11	X12	Y12	Z12	X13	Y13	Z13	X14	Y14	Z14	X15	Y15	Z15	X16	Y16	Z16	X17	Y17	Z17	X18	Y18	Z18	X19	Y19	Z19	X20	Y20	Z20	X21	Y21	Z21	X22	Y22	Z22	X23	Y23	Z23	X24	Y24	Z24	X25	Y25	Z25	X26	Y26	Z26	X27	Y27	Z27	X28	Y28	Z28	X29	Y29	Z29	X30	Y30	Z30	X31	Y31	Z31	X32	Y32	Z32	X33	Y33	Z33	X34	Y34	Z34	X35	Y35	Z35	X36	Y36	Z36	X37	Y37	Z37	X38	Y38	Z38	X39	Y39	Z39	X40	Y40	Z40	X41	Y41	Z41	X42	Y42	Z42	X43	Y43	Z43	X44	Y44	Z44	X45	Y45	Z45	X46	Y46	Z46
																																																																																																																																											
70	0.69	950.2695	1481.0515	-327.6	914.095	1481.838	-756.0445	1037.3505	1298.6271	-546.3401	962.1143	1260.2068	-300.7949	931.4343	1258.882	-783.225	907.8368	1135.2882	-256.0869	878.888	1138.9741	-818.3013	1040.1752	906.1481	-282.2995	989.4775	894.1027	-242.9046	1006.0618	912.2125	-803.5516	956.7462	904.2004	-843.0731	1006.1976	1015.0089	-426.2517	813.3096	1048.9334	-481.4667	801.7455	1038.2705	-536.4474	804.2144	1046.8483	-606.8409	989.4478	1013.4202	-678.5133	974.1163	766.6634	-343.4639	891.7157	766.8495	-339.4512	890.8459	656.7327	-344.4723	919.4289	523.1124	-360.3641	886.2226	408.7633	-329.4179	884.7803	295.8933	-326.2384	810.3361	410.4984	-361.9908	807.9157	297.5874	-352.3484	859.2715	91.9523	-349.5899	809.3196	56.1386	-423.8897	952.2805	32.7549	-297.8096	1013.511	37.679	-392.2343	1050.5173	47.6277	-328.3511	943.5545	774.7442	-750.2783	934.4376	667.5457	-750.2266	859.1673	778.2483	-744.2091	854.7739	668.3474	-736.8982	888.2972	528.6645	-727.9615	874.5065	419.9786	-756.936	793.8138	423.2904	-744.6221	792.4053	313.2365	-743.1479	839.6296	93.159	-737.6855	785.4838	52.8972	-667.9941	926.8905	32.2706	-791.9707	990.9985	35.9702	-696.7079	1031.1787	45.411	-765.454	922.5538	503.075	-471.2788	895.8647	99.9706	-434.3288	907.4506	503.113	-619.3678	874.3936	105.6524	-654.6838
71	0.7	949.8447	1481.2374	-327.2595	913.8658	1482.0056	-756.0232	1037.3522	1299.0518	-546.1479	962.1209	1260.498	-300.5848	931.6094	1259.0629	-783.2489	908.1144	1135.5221	-255.9208	879.4917	1139.0774	-818.3914	1040.8463	906.6979	-282.0748	990.1146	894.5341	-242.7288	1007.3242	912.6774	-803.7017	957.9164	904.4876	-843.2924	1006.2042	1015.1173	-426.2335	813.2756	1048.8737	-481.5417	801.7111	1038.2101	-536.4789	804.2233	1046.8177	-606.8991	989.4308	1013.4318	-678.52	974.0499	766.8049	-343.5616	891.7313	766.8234	-339.5736	890.8114	656.7273	-344.5264	919.4552	523.191	-360.312	886.165	408.7583	-329.4785	884.7457	295.9174	-326.2573	810.3251	410.518	-362.0233	807.9649	297.572	-352.4512	859.2567	91.9677	-349.5726	809.3103	56.1646	-423.9043	952.2112	32.7792	-297.8047	1013.5289	37.6448	-392.253	1050.522	47.6088	-328.3521	943.6468	774.704	-750.2786	934.4725	667.4612	-750.2295	859.2061	778.2087	-744.2658	854.8336	668.3277	-736.9806	888.3235	528.6351	-728.0107	874.5041	419.9541	-756.9873	793.826	423.2849	-744.6525	792.471	313.1961	-743.2091	839.5909	93.1806	-737.7107	785.4647	52.8706	-668.0277	926.8482	32.2571	-791.9784	990.9713	36.0091	-696.6893	1031.165	45.4089	-765.493	922.5909	503.0502	-471.3361	895.8049	99.9791	-434.3534	907.4349	503.1615	-619.3335	874.3322	105.6801	-654.631
72	0.71	949.3605	1481.5587	-326.9735	913.5214	1482.0398	-756.0901	1038.1696	1299.7747	-545.4857	962.2045	1260.8024	-300.4362	931.8302	1259.2607	-783.2612	908.3209	1135.8021	-255.7398	879.6219	1139.0724	-818.8055	1041.3206	906.8218	-281.8814	990.9292	894.996	-242.3139	1008.5979	913.0463	-803.8018	959.1163	904.7684	-843.4352	1006.2441	1015.149	-426.2527	813.2383	1048.8723	-481.5748	801.6066	1038.1514	-536.558	804.1891	1046.8009	-606.9713	989.4321	1013.4442	-678.4846	973.9557	766.7784	-343.4963	891.726	766.8498	-339.6002	890.786	656.7112	-344.553	919.4662	523.1999	-360.3461	886.157	408.7624	-329.5194	884.7539	295.9253	-326.3096	810.2902	410.5147	-362.1303	807.9418	297.5531	-352.4189	859.2445	91.9556	-349.5833	809.3287	56.1561	-423.9325	952.2129	32.8041	-297.7996	1013.5187	37.6593	-392.2656	1050.5305	47.6139	-328.3722	943.7548	774.6475	-750.1223	934.5724	667.5173	-750.3015	859.2042	778.243	-744.3283	854.8787	668.3533	-737.0274	888.3275	528.5896	-727.9791	874.4605	419.9108	-756.9952	793.8564	423.2754	-744.7009	792.4691	313.1976	-743.2263	839.5924	93.1486	-737.71	785.4726	52.8844	-668.0101	926.8261	32.2447	-792.0094	990.9698	36.0297	-696.7041	1031.1798	45.4296	-765.4467	922.5821	503.0349	-471.2759	895.7632	99.9456	-434.361	907.3907	503.1583	-619.4219	874.3453	105.6754	-654.6614
73	0.72	948.8641	1481.861	-326.8501	913.3061	1482.1768	-756.0399	1037.5964	1299.8385	-545.8051	962.2423	1261.0618	-300.2492	932.0024	1259.4359	-783.2667	908.4597	1135.9967	-255.6483	880.0936	1139.1852	-818.9079	1042.1368	907.288	-281.5579	991.6351	895.2941	-242.0304	1009.6403	913.6119	-803.7813	960.399	905.0303	-843.556	1006.3471	1015.2103	-426.2639	813.2004	1048.8409	-481.76	801.5689	1038.1637	-536.6495	804.1896	1046.7846	-607.0262	989.467	1013.4816	-678.4764	973.9432	766.7678	-343.5319	891.4895	766.9423	-338.9157	890.7451	656.7167	-344.5872	919.4545	523.1375	-360.4431	886.1865	408.7163	-329.5481	884.7952	295.9078	-326.3572	810.3926	410.56	-362.0449	807.945	297.5736	-352.4252	859.2441	91.975	-349.6269	809.3408	56.1565	-423.9016	952.2933	32.7781	-297.8313	1013.5092	37.6816	-392.2691	1050.5164	47.6466	-328.3804	943.7548	774.704	-750.2373	934.6747	667.4485	-750.135	859.2217	778.2441	-744.3156	854.8989	668.3567	-737.0531	888.3851	528.6561	-728.0338	874.51	419.9206	-756.9773	793.8427	423.2716	-744.7269	792.4632	313.2322	-743.2213	839.6237	93.139	-737.703	785.4698	52.8792	-668.0248	926.8841	32.2671	-791.9908	991.0096	36.0398	-696.6728	1031.1564	45.4432	-765.4446	922.6704	503.04	-471.3499	895.829	99.9328	-434.3428	907.4257	503.1447	-619.4863	874.403	105.6935	-654.6827
74	0.73	948.4652	1482.142	-326.8076	913.2125	1482.2605	-755.9391	1037.8962	1300.6436	-546.1558	962.2768	1261.3503	-300.0951	932.23	1259.6689	-783.2734	908.6164	1136.2012	-255.4477	880.4554	1139.3154	-818.9629	1042.9231	907.8693	-281.0571	992.1329	895.4955	-241.9446	1010.8933	914.1169	-803.865	961.3917	905.3259	-843.3523	1006.4253	1015.2479	-426.2971	813.1379	1048.8763	-481.6987	801.5072	1038.1152	-536.69	804.1615	1046.7529	-607.1108	989.541	1013.54	-678.438	973.956	766.7999	-343.6647	891.4873	766.8676	-338.9364	890.7241	656.7191	-344.5989	919.4872	523.1095	-360.4352	886.2214	408.7264	-329.5531	884.8292	295.8397	-326.3622	810.3442	410.4986	-362.1121	807.9609	297.5555	-352.4511	859.2803	91.9464	-349.6127	809.367	56.1575	-423.9138	952.3323	32.7265	-297.8491	1013.5119	37.7127	-392.219	1050.5288	47.6158	-328.3498	943.7999	774.7059	-750.1263	934.6192	667.6598	-750.3408	859.257	778.2966	-744.3067	854.8935	668.3948	-737.0903	888.415	528.6935	-728.0175	874.5385	419.9394	-756.9365	793.8556	423.2781	-744.6996	792.4555	313.2221	-743.2154	839.6762	93.1363	-737.7099	785.4772	52.9023	-667.9764	926.9467	32.2803	-791.981	991.0244	35.9424	-696.7033	1031.1632	45.4625	-765.4351	922.6818	503.0165	-471.3402	895.9152	99.9417	-434.3548	907.459	503.1516	-619.4969	874.429	105.6716	-654.6992
75	0.74	948.1394	1482.381	-326.8416	913.0549	1482.2969	-755.9323	1037.9858	1301.004	-546.0043	962.2546	1261.6895	-299.8555	932.441	1259.8534	-783.2954	908.7811	1136.3928	-255.2339	881.4542	1139.3801	-818.702	1043.566	908.1203	-280.8318	992.7678	896.001	-241.4019	1011.9002	914.4627	-803.9985	962.9947	905.6005	-843.8314	1006.4714	1015.288	-426.3238	813.1186	1048.8678	-481.7916	801.4899	1038.0708	-536.7249	804.1465	1046.7573	-607.1641	989.5208	1013.5444	-678.4343	973.9251	766.718	-343.5918	891.45	766.8286	-338.9242	890.715	656.6686	-344.6175	919.4948	523.1537	-360.4444	886.2292	408.7184	-329.5419	884.8502	295.8644	-326.3376	810.4082	410.554	-362.0394	807.9714	297.5511	-352.4977	859.3072	91.966	-349.5863	809.3572	56.139	-423.8699	952.3206	32.7164	-297.8336	1013.5084	37.7061	-392.1963	1050.5228	47.628	-328.3275	943.7527	774.7277	-750.2051	934.6144	667.6331	-750.3484	859.2679	778.332	-744.3328	854.8735	668.3898	-737.089	888.4103	528.7286	-728.0546	874.5136	419.9296	-756.9362	793.8485	423.2601	-744.696	792.4094	313.2317	-743.2078	839.6563	93.1484	-737.6986	785.4705	52.9078	-667.9747	926.9105	32.2734	-791.9697	990.898	36.2799	-696.4538	1031.1896	45.5156	-765.4394	922.6708	503.0131	-471.3273	895.8867	99.8794	-434.3503	907.4301	503.1259	-619.5032	874.4217	105.6247	-654.6826
76	0.75	947.8017	1482.5836	-326.8389	912.7562	1482.2986	-755.8754	1037.9536	1301.3806	-545.8287	962.1691	1261.9868	-299.6326	932.6041	1260.0313	-783.3232	909.0288	1136.5945	-255.01	882.0798	1139.3154	-818.7793	1044.0461	908.5087	-280.4731	993.4069	896.4503	-240.9607	1012.907	914.9297	-804.3239	963.671	905.8409	-843.7741	1006.4708	1015.3291	-426.3779	813.1099	1048.84	-481.7954	801.4668	1038.095	-536.7308	804.1113	1046.7809	-607.1437	989.4625	1013.5481	-678.4437	973.9156	766.8315	-343.7194	891.4501	766.879	-338.9203	890.7222	656.7042	-344.6194	919.4612	523.1112	-360.4452	886.1849	408.7568	-329.5693	884.7987	295.8872	-326.3468	810.4	410.5597	-362.0883	807.9474	297.5556	-352.4473	859.277	91.9732	-349.5878	809.3548	56.1616	-423.9018	952.2735	32.7367	-297.8191	1013.6182	37.0935	-391.6069	1050.524	47.6242	-328.3435	943.7148	774.7308	-750.3086	934.5562	667.5645	-750.355	859.194	778.2554	-744.3883	854.8786	668.368	-737.0938	888.3204	528.6784	-728.077	874.4646	419.9097	-756.9527	793.8237	423.246	-744.7244	792.3807	313.1866	-743.217	839.5929	93.1388	-737.7263	785.4733	52.8604	-668.0339	926.8966	32.2859	-791.9783	990.8347	36.2682	-696.4778	1031.1469	45.4961	-765.4213	922.5864	503.0453	-471.4179	895.8387	99.9059	-434.3522	907.3565	503.0979	-619.467	874.3673	105.6507	-654.6654
77	0.76	947.3514	1482.8424	-326.6749	912.4196	1482.3568	-755.8685	1038.626	1301.7511	-544.5674	962.021	1262.2609	-299.3962	932.7419	1260.124	-783.3705	909.2177	1136.8053	-254.7237	882.5525	1139.3522	-818.8477	1044.4788	908.7299	-280.1186	994.0191	896.7712	-240.5914	1013.8044	915.1164	-804.1442	964.5625	906.0199	-843.857	1006.6054	1015.3585	-426.4018	813.1205	1048.8113	-481.8042	801.4741	1038.1302	-536.7437	804.0811	1046.7781	-607.1556	989.4056	1013.5349	-678.4737	973.9119	766.829	-343.748	891.4495	766.8641	-338.976	890.74	656.689	-344.6409	919.4183	523.1155	-360.4495	886.1462	408.7709	-329.5603	884.7563	295.9049	-326.3947	810.3372	410.5431	-362.108	807.9209	297.5709	-352.5076	859.262	91.9989	-349.5853	809.329	56.1497	-423.9175	952.2316	32.7565	-297.8115	1013.5269	37.6507	-392.233	1050.5447	47.5974	-328.3416	943.629	774.7198	-750.5162	934.5024	667.4529	-750.2828	859.1853	778.1933	-744.3669	854.8447	668.2994	-737.1045	888.252	528.6719	-728.1027	874.3924	419.8761	-757.0153	793.774	423.2346	-744.7238	792.3875	313.1388	-743.2133	839.5875	93.1402	-737.7033	785.4544	52.8521	-668.0362	926.8531	32.2741	-791.9821	990.9719	36.0094	-696.6837	1031.1717	45.4504	-765.4468	922.5804	503.0343	-471.4248	895.7933	99.9087	-434.3513	907.2967	503.1492	-619.4887	874.3149	105.6379	-654.6612
